Simulation
nRows=28
nColumns=15
endheader
time  TH_x TH_y TH_z SC_y  SC_z  SC_x  AC_y  AC_z  AC_x  GH_y  GH_z  GH_yy  EL_x  PS_y
1.55  0.000000  0.000000  0.000000  -33.098670220234595  6.291729808353959  29.103572033602116  54.79109090255912  5.820163789225636  -10.420877479476342  22.361142084067083  54.66698308541564  -20.97818970598249  17.94291613120749  0.000000
1.581  0.000000  0.000000  0.000000  -33.53146469515737  6.630171154629599  30.121321474748836  54.8724776938886  5.582904580296993  -10.276483275574156  22.14131825070387  55.06413595401507  -20.967850836796554  17.906382714406487  0.000000
1.612  0.000000  0.000000  0.000000  -33.92294253151379  6.9228424572076435  30.941967894285384  54.98133261578154  5.373029809807466  -10.079632663013252  21.880105791752676  55.45043386139361  -20.889455638812315  17.879842525969114  0.000000
1.643  0.000000  0.000000  0.000000  -34.26028183935854  7.144674317156172  31.57237381172811  55.099900050817176  5.228030287107197  -9.874852793789556  21.608532819367834  55.800582946242145  -20.792892295025364  17.87946864735716  0.000000
1.674  0.000000  0.000000  0.000000  -34.5606821473378  7.300213106952205  32.04606052861991  55.21941238945193  5.150813888320712  -9.681160872564982  21.367021839413596  56.08015176126694  -20.71535627207994  17.904101552920203  0.000000
1.705  0.000000  0.000000  0.000000  -34.847695259404944  7.407657924815318  32.40144043225412  55.33391071924005  5.126048841885899  -9.501579033461041  21.19669477562761  56.256579580671335  -20.665608132790336  17.941488425275306  0.000000
1.736  0.000000  0.000000  0.000000  -35.12592197149356  7.480868080691045  32.666651767684634  55.436314434713076  5.1332428108685075  -9.345765798471847  21.12716946093385  56.31061222823516  -20.640429793926614  17.980127710469116  0.000000
1.767  0.000000  0.000000  0.000000  -35.372208373774534  7.5233270948714654  32.85072676232826  55.51495486379113  5.147434926962206  -9.236917163352883  21.167386847500097  56.24674562254258  -20.634591635098026  18.013831336830872  0.000000
1.798  0.000000  0.000000  0.000000  -35.54501524289874  7.532576503900799  32.94485272869527  55.55461350749934  5.142747318815699  -9.20764640184534  21.30890049789679  56.08912275912607  -20.647058247711207  18.040122166434443  0.000000
1.829  0.000000  0.000000  0.000000  -35.60622680992796  7.503669994903705  32.936383356064475  55.54152020796225  5.100170888926902  -9.285439061364494  21.537035403404516  55.86272926464641  -20.682919285514394  18.05764176977369  0.000000
1.8599999999999999  0.000000  0.000000  0.000000  -35.53992404750982  7.429397300550657  32.82435134636895  55.47652061576075  5.012557158230911  -9.48177707214644  21.835578863793277  55.57567671756048  -20.764844518235503  18.066132894507458  0.000000
1.891  0.000000  0.000000  0.000000  -35.354905113613285  7.298759322299194  32.62542063242312  55.377730152839945  4.8840293356174085  -9.789336971995239  22.187659780090623  55.21505102918281  -20.9301742429609  18.06682038330034  0.000000
1.922  0.000000  0.000000  0.000000  -35.07185289701288  7.100761745271527  32.36407540676988  55.27244946487437  4.723011268281303  -10.191076628146742  22.574838798406077  54.76030527766713  -21.214833549346388  18.062967313785737  0.000000
1.953  0.000000  0.000000  0.000000  -34.71733600433843  6.831687317365725  32.05407489935488  55.185420941706035  4.534160794501775  -10.660199077823144  22.97999681602904  54.20001304889148  -21.621593748032964  18.06132179732626  0.000000
1.984  0.000000  0.000000  0.000000  -34.33088997090732  6.505544429862334  31.675202644652572  55.13839947062764  4.311851668285524  -11.146251972313264  23.38637203463399  53.548092740993624  -22.105027515588095  18.06958247456145  0.000000
2.015  0.000000  0.000000  0.000000  -33.95671849501552  6.150338211958055  31.180436126453834  55.14735387162532  4.044938138905597  -11.579164805817136  23.768772901729484  52.83745177531981  -22.58339745573783  18.09602324633264  0.000000
2.046  0.000000  0.000000  0.000000  -33.618731457869465  5.7866840286844  30.532508998748657  55.21121344140351  3.739234042940831  -11.908083186475036  24.107170941949416  52.091307332748386  -22.982335655690534  18.14771278759507  0.000000
2.077  0.000000  0.000000  0.000000  -33.316432422162215  5.420332942415349  29.716282646605972  55.309013515877425  3.428444519091772  -12.114361973709704  24.402284551741577  51.3116276173892  -23.26614983394951  18.226367858932093  0.000000
2.108  0.000000  0.000000  0.000000  -33.03794612847964  5.044070733889232  28.733066535864868  55.41760351822047  3.1590506689949303  -12.204819212628095  24.664316895021564  50.494822223836415  -23.44210197712846  18.329824054962998  0.000000
2.139  0.000000  0.000000  0.000000  -32.77523782839767  4.649938789865867  27.59994280666683  55.52345614469917  2.96255250412763  -12.193510826971682  24.898529286152744  49.63982286909902  -23.53515397722773  18.44982035809155  0.000000
2.17  0.000000  0.000000  0.000000  -32.52760397947116  4.237094836733383  26.340615931883047  55.62010662936295  2.8450926054808487  -12.095958082352176  25.107013373221793  48.75076947027684  -23.56959314962689  18.576089885147717  0.000000
2.201  0.000000  0.000000  0.000000  -32.2954709132503  3.8054299683008654  24.97726653469718  55.698913576953004  2.7976593631461375  -11.929219779623006  25.290329549544573  47.83516870075356  -23.55772537405055  18.70327836432218  0.000000
2.232  0.000000  0.000000  0.000000  -32.0763362267716  3.360930764534388  23.5289191930864  55.74988830734345  2.805194219570704  -11.706927755664033  25.44856209249998  46.898477694096194  -23.505951711831354  18.827090749372793  0.000000
2.263  0.000000  0.000000  0.000000  -31.865412340392567  2.9086767315818647  22.01468598411827  55.76501697992776  2.856518518369112  -11.440117892400437  25.581360487729867  45.94367912518123  -23.414645779937025  18.943604365330874  0.000000
2.294  0.000000  0.000000  0.000000  -31.66032836728829  2.450817814447603  20.458332048768007  55.74327731637714  2.9447386385382255  -11.14008486874593  25.690495699181298  44.9726381749538  -23.281637826119816  19.04920431243617  0.000000
2.325  0.000000  0.000000  0.000000  -31.463568527038746  1.9925073418610182  18.887411174232888  55.687748892404265  3.0635219091265222  -10.815614948488816  25.780871802778357  43.98542037553691  -23.102386694128974  19.14169039848384  0.000000
2.356  0.000000  0.000000  0.000000  -31.278104295072282  1.537755204937232  17.3300257249468  55.60477265849581  3.207649272091437  -10.475828226105644  25.85903700337786  42.97965934231515  -22.873816164899655  19.219269946059093  0.000000
2.387  0.000000  0.000000  0.000000  -31.10496293902885  1.0923991510979247  15.809170336720218  55.498711242322216  3.3672532385649165  -10.128911180800047  25.93048230878227  41.95275610421858  -22.59664935833308  19.28264901197532  0.000000
